<svg xmlns="http://www.w3.org/2000/svg">
    <symbol id="plus" viewBox="0 0 36.77 36.77">
        <rect y="14.89" width="36.77" height="7"/>
        <rect x="14.89" width="7" height="36.77"/>
    </symbol>

    <symbol id="minus" viewBox="0 0 36.77 36.77">
        <rect y="14.89" width="36.77" height="7"/>
    </symbol>

    <symbol id="social-facebook" viewBox="0 0 500 500">
        <path d="M500 250C500 111.93 388.07 0 250 0S0 111.93 0 250c0 117.24 80.72 215.62 189.61 242.64V326.4h-51.55V250h51.55v-32.92c0-85.09 38.51-124.53 122.05-124.53 15.84 0 43.17 3.11 54.35 6.21v69.25c-5.9-.62-16.15-.93-28.88-.93-40.99 0-56.83 15.53-56.83 55.9V250h81.66l-14.03 76.4H280.3v171.77C404.07 483.22 500 377.82 500 250" /><path d="m347.92 326.4 14.03-76.4h-81.66v-27.02c0-40.37 15.84-55.9 56.83-55.9 12.73 0 22.98.31 28.88.93V98.76c-11.18-3.11-38.51-6.21-54.35-6.21-83.54 0-122.05 39.44-122.05 124.53V250h-51.55v76.4h51.55v166.24c19.34 4.8 39.57 7.36 60.39 7.36 10.25 0 20.36-.63 30.29-1.83V326.4z" style="fill:transparent"/>
    </symbol>

    <symbol id="social-instagram" viewBox="0 0 1000 1000">
        <path d="M292.92 3.5c-53.2 2.51-89.53 11-121.29 23.48-32.87 12.81-60.73 30-88.45 57.82s-44.79 55.7-57.51 88.62c-12.31 31.83-20.65 68.19-23 121.42S-.2 365.18.06 500.96.92 653.76 3.5 707.1c2.54 53.19 11 89.51 23.48 121.28 12.83 32.87 30 60.72 57.83 88.45s55.69 44.76 88.69 57.5c31.8 12.29 68.17 20.67 121.39 23s70.35 2.87 206.09 2.61 152.83-.86 206.16-3.39 89.46-11.05 121.24-23.47c32.87-12.86 60.74-30 88.45-57.84s44.77-55.74 57.48-88.68c12.32-31.8 20.69-68.17 23-121.35 2.33-53.37 2.88-70.41 2.62-206.17s-.87-152.78-3.4-206.1-11-89.53-23.47-121.32c-12.85-32.87-30-60.7-57.82-88.45s-55.74-44.8-88.67-57.48c-31.82-12.31-68.17-20.7-121.39-23S634.83-.2 499.04.06 346.25.9 292.92 3.5m5.84 903.88c-48.75-2.12-75.22-10.22-92.86-17-23.36-9-40-19.88-57.58-37.29s-28.38-34.11-37.5-57.42c-6.85-17.64-15.1-44.08-17.38-92.83-2.48-52.69-3-68.51-3.29-202s.22-149.29 2.53-202c2.08-48.71 10.23-75.21 17-92.84 9-23.39 19.84-40 37.29-57.57s34.1-28.39 57.43-37.51c17.62-6.88 44.06-15.06 92.79-17.38 52.73-2.5 68.53-3 202-3.29s149.31.21 202.06 2.53c48.71 2.12 75.22 10.19 92.83 17 23.37 9 40 19.81 57.57 37.29s28.4 34.07 37.52 57.45c6.89 17.57 15.07 44 17.37 92.76 2.51 52.73 3.08 68.54 3.32 202s-.23 149.31-2.54 202c-2.13 48.75-10.21 75.23-17 92.89-9 23.35-19.85 40-37.31 57.56s-34.09 28.38-57.43 37.5c-17.6 6.87-44.07 15.07-92.76 17.39-52.73 2.48-68.53 3-202.05 3.29s-149.27-.25-202-2.53m407.6-674.61a60 60 0 1 0 59.88-60.1 60 60 0 0 0-59.88 60.1M243.27 500.5c.28 141.8 115.44 256.49 257.21 256.22S757.02 641.3 756.75 499.5 641.29 242.98 499.5 243.26 243 358.72 243.27 500.5m90.06-.18a166.67 166.67 0 1 1 167 166.34 166.65 166.65 0 0 1-167-166.34"/>
    </symbol>

    <symbol id="social-twitter" viewBox="0 0 1200 1226.37">
        <path d="M714.16 519.28 1160.89 0h-105.86L667.14 450.89 357.33 0H0l468.49 681.82L0 1226.37h105.87L515.5 750.22l327.18 476.15h357.33L714.15 519.28h.03Zm-145 168.55-47.47-67.89L144.01 79.69h162.6l304.8 435.99 47.47 67.89 396.2 566.72h-162.6L569.17 687.84v-.03Z"/>
    </symbol>

    <symbol id="social-linkedin" viewBox="0 0 20 20">
        <path d="M18.5 0h-17C.67 0 0 .67 0 1.5v17c0 .83.67 1.5 1.5 1.5h17c.83 0 1.5-.67 1.5-1.5v-17c0-.83-.67-1.5-1.5-1.5M6 17H3V8h3zM4.5 6.25c-.97-.03-1.73-.83-1.7-1.8s.83-1.73 1.8-1.7c.95.03 1.7.8 1.7 1.75-.02.98-.82 1.76-1.8 1.75M17 17h-3v-4.74c0-1.42-.6-1.93-1.38-1.93-.96.06-1.68.89-1.62 1.85V17H8V8h2.9v1.3c.59-.9 1.62-1.44 2.7-1.4 1.55 0 3.36.86 3.36 3.66z" />
    </symbol>

    <symbol id="social-pinterest" viewBox="0 0 500 500.12">
        <circle cx="250" cy="250.12" r="250" style="fill:transparent" />
        <path d="M157.19 482.19c-3.12-28.44-.94-55.62 5.31-81.87l25-107.81c-4.06-13.12-7.19-28.13-7.19-43.13 0-35 16.88-60 43.44-60 18.44 0 31.88 12.81 31.88 37.5 0 7.81-1.56 16.56-4.69 26.56L240 289.37c-2.19 6.88-3.12 13.44-3.12 19.06 0 25 19.06 39.06 43.44 39.06 43.44 0 74.38-45 74.38-103.44 0-65-42.5-106.56-105.31-106.56-70 0-114.37 45.63-114.37 109.06 0 25.62 7.81 49.37 23.13 65.62-5 8.44-10.31 10-18.44 10-25 0-48.75-35.31-48.75-83.44 0-83.13 66.56-149.37 160-149.37 98.12 0 159.69 68.44 159.69 152.81 0 85-60 148.75-124.69 148.75-25.63 0-48.13-10.94-63.75-30.63l-12.81 51.88c-6.88 26.87-17.19 52.19-33.75 76.56C199.06 495.94 222.19 500 250 500c138.12 0 250-111.88 250-250S388.13 0 250 0 0 111.88 0 250c0 104.69 64.38 195 157.19 232.19" />
    </symbol>

    <symbol id="social-tiktok" viewBox="0 0 600 600">
        <defs><style>.cls-1{fill:#fe2c55}.cls-3{fill:#25f4ee}</style></defs>
        <circle id="BACKGROUND" cx="300" cy="300" r="300"/><path d="M260.18 257.1v-16.29c-5.45-.74-10.99-1.21-16.65-1.21-68.12 0-123.53 55.42-123.53 123.53 0 41.79 20.88 78.78 52.74 101.14-20.56-22.07-32.76-51.64-32.76-84.11 0-67.14 53.43-121.51 120.2-123.07Z" class="cls-3"/><path d="M263.09 436.94c30.39 0 55.54-24.52 56.67-54.64l.26-268.59 48.71.02-.08-.4a93.7 93.7 0 0 1-1.58-17.03h-67.11l-.11 268.97c-1.13 30.12-25.92 54.29-56.31 54.29-9.45 0-18.34-2.36-26.17-6.48 10.25 14.21 26.91 23.86 45.73 23.86ZM460.44 205.42v-15.76c-18.75 0-36.21-5.57-50.85-15.12 13.04 14.97 30.75 26.57 50.85 30.88" class="cls-3"/><path d="M409.59 174.54c-14.28-16.41-22.96-37.81-22.96-61.22h-18.29c4.73 25.57 20.22 47.51 41.25 61.22M243.53 306.21c-31.11 0-56.79 25.82-56.79 56.93 0 21.66 12.66 40.48 30.62 49.93-6.69-9.27-10.68-20.62-10.68-32.9 0-31.11 25.31-56.42 56.42-56.42 5.81 0 11.38.96 16.65 2.61v-68.52c-5.45-.74-10.99-1.21-16.65-1.21-.98 0-1.94.05-2.92.07h-.26l-.18 51.88c-5.27-1.65-10.4-2.38-16.21-2.38Z" class="cls-1"/><path d="m460.44 204.62-.31-.06-.02 51.82c-34.8 0-67.13-11.45-93.46-30.35l.02 137.11c0 68.12-55.02 123.19-123.14 123.19-26.32 0-50.73-7.96-70.79-22.05 22.57 24.23 54.71 39.42 90.36 39.42 68.12 0 123.53-55.42 123.53-123.53V243.78c26.32 18.89 58.57 30.03 93.37 30.03V206.7c-6.71 0-13.25-.73-19.56-2.08" class="cls-1"/><path d="M367.06 363.14V226.75c26.32 18.89 58.57 30.03 93.37 30.03v-52.16c-20.1-4.3-37.81-15.1-50.85-30.07-21.03-13.71-36.21-35.65-40.94-61.22H319.5l-.11 268.97c-1.13 30.12-25.92 54.29-56.31 54.29-18.82 0-35.48-9.3-45.73-23.51-17.96-9.45-30.25-28.27-30.25-49.93 0-31.11 25.31-56.42 56.42-56.42 5.81 0 11.38.96 16.65 2.61v-52.62c-66.77 1.56-120.62 56.32-120.62 123.46 0 32.47 12.61 62.04 33.17 84.11 20.06 14.09 44.47 22.39 70.79 22.39 68.12 0 123.53-55.42 123.53-123.53Z" style="fill:#fff"/>
    </symbol>

    <symbol id="social-youtube" viewBox="0 0 396.53 277.78">
        <path d="M43.45 269.38c-17.09-4.63-30.41-18.25-35.34-35.05C0 203.34 0 138.74 0 138.74s0-64.59 8.11-95.29C13.03 26.36 26.36 13.03 43.45 8.4 74.15 0 198.12 0 198.12 0s124.26 0 154.96 8.4c17.38 4.63 30.41 17.96 35.05 35.05 8.4 30.7 8.4 95.29 8.4 95.29s0 64.59-8.4 95.59c-4.64 16.8-17.67 30.41-35.05 35.05-30.7 8.4-154.96 8.4-154.96 8.4s-123.97 0-154.67-8.4m115.28-70.97 102.83-59.67-102.83-59.38z" /><path d="m158.73 198.41 102.83-59.67-102.83-59.38z" style="fill:transparent"/>
    </symbol>
</svg>
