<svg xmlns="http://www.w3.org/2000/svg">
    <symbol id="plus" viewBox="0 0 36.77 36.77">
        <rect y="14.89" width="36.77" height="7"/>
        <rect x="14.89" width="7" height="36.77"/>
    </symbol>

    <symbol id="minus" viewBox="0 0 36.77 36.77">
        <rect y="14.89" width="36.77" height="7"/>
    </symbol>

    <symbol id="social-facebook" viewBox="0 0 1024 1024">
        <style>.b{fill:transparent;}}</style>
        <path d="M1024,512C1024,229.23,794.77,0,512,0S0,229.23,0,512c0,255.55,187.23,467.37,432,505.78v-357.78h-130v-148h130v-112.8c0-128.32,76.44-199.2,193.39-199.2,56.02,0,114.61,10,114.61,10v126h-64.56c-63.6,0-83.44,39.47-83.44,79.96v96.04h142l-22.7,148h-119.3v357.78c244.77-38.41,432-250.22,432-505.78Z"/>
        <path class="b" d="M711.3,660l22.7-148h-142v-96.04c0-40.49,19.84-79.96,83.44-79.96h64.56v-126s-58.59-10-114.61-10c-116.95,0-193.39,70.88-193.39,199.2v112.8h-130v148h130v357.78c26.07,4.09,52.78,6.22,80,6.22s53.93-2.13,80-6.22v-357.78h119.3Z"/>
    </symbol>

    <symbol id="social-instagram" viewBox="0 0 258.8 258.8">
        <path d="M252,44.6c-3.3-8.5-7.7-15.7-14.9-22.9c-7.2-7.2-14.4-11.6-22.9-14.9c-8.2-3.2-17.7-5.4-31.4-6
            C169,0.2,164.6,0,129.4,0S89.8,0.1,76,0.8c-13.8,0.6-23.2,2.8-31.4,6c-8.5,3.3-15.7,7.7-22.9,14.9S10.1,36.1,6.8,44.6
            c-3.2,8.2-5.4,17.7-6,31.4C0.2,89.8,0,94.2,0,129.4s0.1,39.6,0.8,53.4c0.6,13.8,2.8,23.2,6,31.4c3.3,8.5,7.7,15.7,14.9,22.9
            c7.2,7.2,14.4,11.6,22.9,14.9c8.2,3.2,17.7,5.4,31.4,6c13.8,0.6,18.2,0.8,53.4,0.8s39.6-0.1,53.4-0.8c13.8-0.6,23.2-2.8,31.4-6
            c8.5-3.3,15.7-7.7,22.9-14.9c7.2-7.2,11.6-14.4,14.9-22.9c3.2-8.2,5.4-17.7,6-31.4c0.6-13.8,0.8-18.2,0.8-53.4S258.7,89.8,258,76
            C257.4,62.2,255.2,52.8,252,44.6z M234.7,181.7c-0.6,12.6-2.7,19.5-4.5,24c-2.3,6-5.2,10.4-9.7,14.9s-8.8,7.3-14.9,9.7
            c-4.6,1.8-11.4,3.9-24,4.5c-13.7,0.6-17.7,0.8-52.3,0.8s-38.7-0.1-52.3-0.8c-12.6-0.6-19.5-2.7-24-4.5c-6-2.3-10.4-5.2-14.9-9.7
            s-7.3-8.8-9.7-14.9c-1.8-4.6-3.9-11.4-4.5-24c-0.6-13.7-0.8-17.8-0.8-52.3s0.1-38.7,0.8-52.3c0.6-12.6,2.7-19.5,4.5-24
            c2.3-6,5.2-10.4,9.7-14.9s8.8-7.3,14.9-9.7c4.6-1.8,11.4-3.9,24-4.5c13.7-0.6,17.8-0.8,52.3-0.8s38.7,0.1,52.3,0.8
            c12.6,0.6,19.5,2.7,24,4.5c6,2.3,10.4,5.2,14.9,9.7s7.3,8.8,9.7,14.9c1.8,4.6,3.9,11.4,4.5,24c0.6,13.7,0.8,17.8,0.8,52.3
            S235.3,168.1,234.7,181.7z"/>
        <path d="M129.3,62.9c-36.7,0-66.5,29.8-66.5,66.5s29.8,66.5,66.5,66.5s66.5-29.8,66.5-66.5
            S166,62.9,129.3,62.9z M129.3,172.6c-23.8,0-43.2-19.3-43.2-43.2c0-23.8,19.3-43.2,43.2-43.2s43.2,19.3,43.2,43.2
            C172.5,153.2,153.1,172.6,129.3,172.6z"/>
        <circle cx="198.4" cy="60.3" r="15.5"/>
    </symbol>

    <symbol id="social-twitter" viewBox="0 0 49.3 40">
        <path d="M49.3,4.7c-1.8,0.8-3.8,1.3-5.8,1.6c2.1-1.2,3.7-3.2,4.4-5.6c-2,1.2-4.1,2-6.4,2.5C39.6,1.2,37,0,34.1,0
            C28.5,0,24,4.5,24,10.1c0,0.8,0.1,1.6,0.3,2.3C15.9,12,8.4,8,3.4,1.8C2.6,3.3,2.1,5.1,2.1,6.9c0,3.5,1.8,6.6,4.5,8.4
            c-1.7-0.1-3.2-0.5-4.6-1.3c0,0,0,0.1,0,0.1c0,4.9,3.5,9,8.1,9.9c-0.8,0.2-1.7,0.4-2.7,0.4c-0.7,0-1.3-0.1-1.9-0.2c1.3,4,5,6.9,9.4,7
            c-3.5,2.7-7.8,4.3-12.6,4.3c-0.8,0-1.6,0-2.4-0.1C4.5,38.4,9.8,40,15.5,40c18.6,0,28.8-15.4,28.8-28.8c0-0.4,0-0.9,0-1.3
            C46.2,8.5,47.9,6.8,49.3,4.7z"/>
    </symbol>
</svg>
